<svg width="200" height="200" viewBox="0 0 200 200" fill="none" xmlns="http://www.w3.org/2000/svg">
<path d="M170 101.5H49.0001C43.8001 113.5 46.8334 127.167 49.0001 132.5H170C176.4 119.7 172.667 106.5 170 101.5Z" fill="#F2E5D3"/>
<path d="M170 132H49.5C50.7 147.2 70.3333 168.667 80 177.5V184.5H137.5L138.5 177.5C152.9 169.1 165.5 143.667 170 132Z" fill="#764E42"/>
<path d="M141 29.5H78C78 35.9 83.3333 38.8333 86 39.5V57.5C82.8 69.9 72 76.3333 67 78C58.2 82 51.3333 95.3333 49 101.5H170.5L159 82.5C148.2 79.7 136.833 65.6667 132.5 59V39.5C139.3 35.9 141 31.3333 141 29.5Z" fill="#764E42"/>
<path d="M51 102H169M48 132L170 132M48.0984 112.878L61.5163 124.644L77.5595 110.124L94.7694 124.644L109.938 110.124L125.981 125.896L142.607 110.124L158.067 124.644L170.61 113.879M78.7262 176.727C79.893 177.895 82.1099 181.083 79.3096 184.488M139.881 176.727C138.714 177.895 136.497 181.083 139.297 184.488M79.0181 184.738H139.107M66.1835 77.8383C49.5569 88.353 25.0546 128.409 79.3097 176.977M152.816 77.8383C169.443 88.353 193.945 128.409 139.69 176.977M85.1436 59.3123C84.2686 62.4834 79.3098 70.5781 66.4752 77.5879M133.856 59.3123C134.731 62.4834 139.69 70.5781 152.525 77.5879M85 42V59M134 42V59M76.6843 29H142.024M142.024 29H142.315M142.024 29C142.218 31.0863 140.857 36.4104 133.856 41.0169M76.3926 29C76.1981 31.0863 77.5593 36.4104 84.56 41.0169" stroke="#452415" stroke-width="4.50633" stroke-linecap="round"/>
</svg>
